<?xml version="1.0" encoding="UTF-8" standalone="no"?>
<!DOCTYPE svg PUBLIC "-//W3C//DTD SVG 1.1//EN"
 "http://www.w3.org/Graphics/SVG/1.1/DTD/svg11.dtd">
<!-- Generated by graphviz version 2.43.0 (0)
 -->
<!-- Title: torq::Task Pages: 1 -->
<svg width="349pt" height="84pt"
 viewBox="0.00 0.00 348.50 84.00" xmlns="http://www.w3.org/2000/svg" xmlns:xlink="http://www.w3.org/1999/xlink">
<g id="graph0" class="graph" transform="scale(1 1) rotate(0) translate(4 80)">
<title>torq::Task</title>
<polygon fill="white" stroke="transparent" points="-4,4 -4,-80 344.5,-80 344.5,4 -4,4"/>
<!-- Node1 -->
<g id="node1" class="node">
<title>Node1</title>
<g id="a_node1"><a xlink:title="Abstract base class for kinematic tasks that contribute to the QP objective.">
<polygon fill="#bfbfbf" stroke="black" points="142,-56.5 142,-75.5 206,-75.5 206,-56.5 142,-56.5"/>
<text text-anchor="middle" x="174" y="-63.5" font-family="Helvetica,sans-Serif" font-size="10.00">torq::Task</text>
</a>
</g>
</g>
<!-- Node2 -->
<g id="node2" class="node">
<title>Node2</title>
<g id="a_node2"><a xlink:href="classtorq_1_1DampingTask.html" target="_top" xlink:title="Minimise joint velocities — viscous damping.">
<polygon fill="white" stroke="black" points="0,-0.5 0,-19.5 108,-19.5 108,-0.5 0,-0.5"/>
<text text-anchor="middle" x="54" y="-7.5" font-family="Helvetica,sans-Serif" font-size="10.00">torq::DampingTask</text>
</a>
</g>
</g>
<!-- Node1&#45;&gt;Node2 -->
<g id="edge1" class="edge">
<title>Node1&#45;&gt;Node2</title>
<path fill="none" stroke="midnightblue" d="M145.63,-52.23C123.18,-42.13 92.46,-28.31 72.93,-19.52"/>
<polygon fill="midnightblue" stroke="midnightblue" points="144.43,-55.53 154.99,-56.44 147.3,-49.15 144.43,-55.53"/>
</g>
<!-- Node3 -->
<g id="node3" class="node">
<title>Node3</title>
<g id="a_node3"><a xlink:href="classtorq_1_1FrameTask.html" target="_top" xlink:title="Regulate the SE(3) pose of a robot frame to a desired target.">
<polygon fill="white" stroke="black" points="126.5,-0.5 126.5,-19.5 221.5,-19.5 221.5,-0.5 126.5,-0.5"/>
<text text-anchor="middle" x="174" y="-7.5" font-family="Helvetica,sans-Serif" font-size="10.00">torq::FrameTask</text>
</a>
</g>
</g>
<!-- Node1&#45;&gt;Node3 -->
<g id="edge2" class="edge">
<title>Node1&#45;&gt;Node3</title>
<path fill="none" stroke="midnightblue" d="M174,-45.8C174,-36.91 174,-26.78 174,-19.75"/>
<polygon fill="midnightblue" stroke="midnightblue" points="170.5,-46.08 174,-56.08 177.5,-46.08 170.5,-46.08"/>
</g>
<!-- Node4 -->
<g id="node4" class="node">
<title>Node4</title>
<g id="a_node4"><a xlink:href="classtorq_1_1PostureTask.html" target="_top" xlink:title="Regulate joint angles toward a desired posture.">
<polygon fill="white" stroke="black" points="239.5,-0.5 239.5,-19.5 340.5,-19.5 340.5,-0.5 239.5,-0.5"/>
<text text-anchor="middle" x="290" y="-7.5" font-family="Helvetica,sans-Serif" font-size="10.00">torq::PostureTask</text>
</a>
</g>
</g>
<!-- Node1&#45;&gt;Node4 -->
<g id="edge3" class="edge">
<title>Node1&#45;&gt;Node4</title>
<path fill="none" stroke="midnightblue" d="M201.72,-52.1C223.39,-42.01 252.9,-28.27 271.71,-19.52"/>
<polygon fill="midnightblue" stroke="midnightblue" points="199.97,-49.05 192.38,-56.44 202.92,-55.4 199.97,-49.05"/>
</g>
</g>
</svg>
