<?xml version="1.0" encoding="UTF-8" standalone="no"?>
<!DOCTYPE svg PUBLIC "-//W3C//DTD SVG 1.1//EN"
 "http://www.w3.org/Graphics/SVG/1.1/DTD/svg11.dtd">
<!-- Generated by graphviz version 2.43.0 (0)
 -->
<!-- Title: torq::Limit Pages: 1 -->
<svg width="264pt" height="84pt"
 viewBox="0.00 0.00 264.00 84.00" xmlns="http://www.w3.org/2000/svg" xmlns:xlink="http://www.w3.org/1999/xlink">
<g id="graph0" class="graph" transform="scale(1 1) rotate(0) translate(4 80)">
<title>torq::Limit</title>
<polygon fill="white" stroke="transparent" points="-4,4 -4,-80 260,-80 260,4 -4,4"/>
<!-- Node1 -->
<g id="node1" class="node">
<title>Node1</title>
<g id="a_node1"><a xlink:title="Abstract base class for kinematic limits (QP inequality constraints).">
<polygon fill="#bfbfbf" stroke="black" points="100.5,-56.5 100.5,-75.5 167.5,-75.5 167.5,-56.5 100.5,-56.5"/>
<text text-anchor="middle" x="134" y="-63.5" font-family="Helvetica,sans-Serif" font-size="10.00">torq::Limit</text>
</a>
</g>
</g>
<!-- Node2 -->
<g id="node2" class="node">
<title>Node2</title>
<g id="a_node2"><a xlink:href="classtorq_1_1ConfigurationLimit.html" target="_top" xlink:title="Joint position (configuration) limits.">
<polygon fill="white" stroke="black" points="0,-0.5 0,-19.5 132,-19.5 132,-0.5 0,-0.5"/>
<text text-anchor="middle" x="66" y="-7.5" font-family="Helvetica,sans-Serif" font-size="10.00">torq::ConfigurationLimit</text>
</a>
</g>
</g>
<!-- Node1&#45;&gt;Node2 -->
<g id="edge1" class="edge">
<title>Node1&#45;&gt;Node2</title>
<path fill="none" stroke="midnightblue" d="M115.24,-50.1C103,-40.38 87.44,-28.03 77.12,-19.83"/>
<polygon fill="midnightblue" stroke="midnightblue" points="113.07,-52.85 123.07,-56.32 117.42,-47.36 113.07,-52.85"/>
</g>
<!-- Node3 -->
<g id="node3" class="node">
<title>Node3</title>
<g id="a_node3"><a xlink:href="classtorq_1_1VelocityLimit.html" target="_top" xlink:title="Joint velocity limits.">
<polygon fill="white" stroke="black" points="150,-0.5 150,-19.5 256,-19.5 256,-0.5 150,-0.5"/>
<text text-anchor="middle" x="203" y="-7.5" font-family="Helvetica,sans-Serif" font-size="10.00">torq::VelocityLimit</text>
</a>
</g>
</g>
<!-- Node1&#45;&gt;Node3 -->
<g id="edge2" class="edge">
<title>Node1&#45;&gt;Node3</title>
<path fill="none" stroke="midnightblue" d="M153.04,-50.1C165.46,-40.38 181.24,-28.03 191.71,-19.83"/>
<polygon fill="midnightblue" stroke="midnightblue" points="150.8,-47.4 145.09,-56.32 155.12,-52.92 150.8,-47.4"/>
</g>
</g>
</svg>
