<?xml version="1.0" encoding="UTF-8" standalone="no"?>
<!DOCTYPE svg PUBLIC "-//W3C//DTD SVG 1.1//EN"
 "http://www.w3.org/Graphics/SVG/1.1/DTD/svg11.dtd">
<!-- Generated by graphviz version 2.43.0 (0)
 -->
<!-- Title: torq::HardwareInterface Pages: 1 -->
<svg width="234pt" height="84pt"
 viewBox="0.00 0.00 233.50 84.00" xmlns="http://www.w3.org/2000/svg" xmlns:xlink="http://www.w3.org/1999/xlink">
<g id="graph0" class="graph" transform="scale(1 1) rotate(0) translate(4 80)">
<title>torq::HardwareInterface</title>
<polygon fill="white" stroke="transparent" points="-4,4 -4,-80 229.5,-80 229.5,4 -4,4"/>
<!-- Node1 -->
<g id="node1" class="node">
<title>Node1</title>
<g id="a_node1"><a xlink:title="Abstract hardware abstraction layer for any robot driver (simulation or real).">
<polygon fill="#bfbfbf" stroke="black" points="48,-56.5 48,-75.5 181,-75.5 181,-56.5 48,-56.5"/>
<text text-anchor="middle" x="114.5" y="-63.5" font-family="Helvetica,sans-Serif" font-size="10.00">torq::HardwareInterface</text>
</a>
</g>
</g>
<!-- Node2 -->
<g id="node2" class="node">
<title>Node2</title>
<g id="a_node2"><a xlink:href="classtorq_1_1MujocoDriver.html" target="_top" xlink:title=" ">
<polygon fill="white" stroke="black" points="0,-0.5 0,-19.5 107,-19.5 107,-0.5 0,-0.5"/>
<text text-anchor="middle" x="53.5" y="-7.5" font-family="Helvetica,sans-Serif" font-size="10.00">torq::MujocoDriver</text>
</a>
</g>
</g>
<!-- Node1&#45;&gt;Node2 -->
<g id="edge1" class="edge">
<title>Node1&#45;&gt;Node2</title>
<path fill="none" stroke="midnightblue" d="M97.03,-49.54C86.16,-39.91 72.56,-27.87 63.48,-19.83"/>
<polygon fill="midnightblue" stroke="midnightblue" points="94.89,-52.32 104.7,-56.32 99.53,-47.07 94.89,-52.32"/>
</g>
<!-- Node3 -->
<g id="node3" class="node">
<title>Node3</title>
<g id="a_node3"><a xlink:href="classtorq_1_1ServoDriver.html" target="_top" xlink:title="Hardware driver for ST/STS/SMS serial bus servos (e.g.">
<polygon fill="white" stroke="black" points="125.5,-0.5 125.5,-19.5 225.5,-19.5 225.5,-0.5 125.5,-0.5"/>
<text text-anchor="middle" x="175.5" y="-7.5" font-family="Helvetica,sans-Serif" font-size="10.00">torq::ServoDriver</text>
</a>
</g>
</g>
<!-- Node1&#45;&gt;Node3 -->
<g id="edge2" class="edge">
<title>Node1&#45;&gt;Node3</title>
<path fill="none" stroke="midnightblue" d="M131.97,-49.54C142.84,-39.91 156.44,-27.87 165.52,-19.83"/>
<polygon fill="midnightblue" stroke="midnightblue" points="129.47,-47.07 124.3,-56.32 134.11,-52.32 129.47,-47.07"/>
</g>
</g>
</svg>
