<?xml version="1.0" encoding="UTF-8" standalone="no"?>
<!DOCTYPE svg PUBLIC "-//W3C//DTD SVG 1.1//EN"
 "http://www.w3.org/Graphics/SVG/1.1/DTD/svg11.dtd">
<!-- Generated by graphviz version 2.43.0 (0)
 -->
<!-- Title: torq::Barrier Pages: 1 -->
<svg width="440pt" height="84pt"
 viewBox="0.00 0.00 439.50 84.00" xmlns="http://www.w3.org/2000/svg" xmlns:xlink="http://www.w3.org/1999/xlink">
<g id="graph0" class="graph" transform="scale(1 1) rotate(0) translate(4 80)">
<title>torq::Barrier</title>
<polygon fill="white" stroke="transparent" points="-4,4 -4,-80 435.5,-80 435.5,4 -4,4"/>
<!-- Node1 -->
<g id="node1" class="node">
<title>Node1</title>
<g id="a_node1"><a xlink:title="Abstract base class for Control Barrier Functions (CBFs).">
<polygon fill="#bfbfbf" stroke="black" points="183,-56.5 183,-75.5 258,-75.5 258,-56.5 183,-56.5"/>
<text text-anchor="middle" x="220.5" y="-63.5" font-family="Helvetica,sans-Serif" font-size="10.00">torq::Barrier</text>
</a>
</g>
</g>
<!-- Node2 -->
<g id="node2" class="node">
<title>Node2</title>
<g id="a_node2"><a xlink:href="classtorq_1_1BodySphericalBarrier.html" target="_top" xlink:title="Minimum&#45;distance barrier between two frames (spherical approximation).">
<polygon fill="white" stroke="black" points="0,-0.5 0,-19.5 145,-19.5 145,-0.5 0,-0.5"/>
<text text-anchor="middle" x="72.5" y="-7.5" font-family="Helvetica,sans-Serif" font-size="10.00">torq::BodySphericalBarrier</text>
</a>
</g>
</g>
<!-- Node1&#45;&gt;Node2 -->
<g id="edge1" class="edge">
<title>Node1&#45;&gt;Node2</title>
<path fill="none" stroke="midnightblue" d="M187.35,-52.91C159.53,-42.75 120.48,-28.51 95.84,-19.52"/>
<polygon fill="midnightblue" stroke="midnightblue" points="186.46,-56.3 197.05,-56.44 188.85,-49.73 186.46,-56.3"/>
</g>
<!-- Node3 -->
<g id="node3" class="node">
<title>Node3</title>
<g id="a_node3"><a xlink:href="classtorq_1_1PositionBarrier.html" target="_top" xlink:title="Cartesian position barrier on a robot frame.">
<polygon fill="white" stroke="black" points="163.5,-0.5 163.5,-19.5 277.5,-19.5 277.5,-0.5 163.5,-0.5"/>
<text text-anchor="middle" x="220.5" y="-7.5" font-family="Helvetica,sans-Serif" font-size="10.00">torq::PositionBarrier</text>
</a>
</g>
</g>
<!-- Node1&#45;&gt;Node3 -->
<g id="edge2" class="edge">
<title>Node1&#45;&gt;Node3</title>
<path fill="none" stroke="midnightblue" d="M220.5,-45.8C220.5,-36.91 220.5,-26.78 220.5,-19.75"/>
<polygon fill="midnightblue" stroke="midnightblue" points="217,-46.08 220.5,-56.08 224,-46.08 217,-46.08"/>
</g>
<!-- Node4 -->
<g id="node4" class="node">
<title>Node4</title>
<g id="a_node4"><a xlink:href="classtorq_1_1SelfCollisionBarrier.html" target="_top" xlink:title="Self&#45;collision avoidance barrier using Pinocchio geometry distances.">
<polygon fill="white" stroke="black" points="295.5,-0.5 295.5,-19.5 431.5,-19.5 431.5,-0.5 295.5,-0.5"/>
<text text-anchor="middle" x="363.5" y="-7.5" font-family="Helvetica,sans-Serif" font-size="10.00">torq::SelfCollisionBarrier</text>
</a>
</g>
</g>
<!-- Node1&#45;&gt;Node4 -->
<g id="edge3" class="edge">
<title>Node1&#45;&gt;Node4</title>
<path fill="none" stroke="midnightblue" d="M252.53,-52.91C279.41,-42.75 317.14,-28.51 340.95,-19.52"/>
<polygon fill="midnightblue" stroke="midnightblue" points="251.28,-49.64 243.16,-56.44 253.75,-56.19 251.28,-49.64"/>
</g>
</g>
</svg>
