<?xml version="1.0" encoding="UTF-8" standalone="no"?>
<!DOCTYPE svg PUBLIC "-//W3C//DTD SVG 1.1//EN"
 "http://www.w3.org/Graphics/SVG/1.1/DTD/svg11.dtd">
<!-- Generated by graphviz version 2.43.0 (0)
 -->
<!-- Title: include/torq Pages: 1 -->
<svg width="110pt" height="183pt"
 viewBox="0.00 0.00 110.00 183.00" xmlns="http://www.w3.org/2000/svg" xmlns:xlink="http://www.w3.org/1999/xlink">
<g id="graph0" class="graph" transform="scale(1 1) rotate(0) translate(4 179)">
<title>include/torq</title>
<polygon fill="white" stroke="transparent" points="-4,4 -4,-179 106,-179 106,4 -4,4"/>
<g id="clust1" class="cluster">
<title>clusterdir_d44c64559bbebec7f509842c48db8b23</title>
<g id="a_clust1"><a xlink:href="dir_d44c64559bbebec7f509842c48db8b23.html" target="_top" xlink:title="include">
<polygon fill="#ddddee" stroke="black" points="8,-8 8,-167 94,-167 94,-8 8,-8"/>
<text text-anchor="middle" x="51" y="-155" font-family="Helvetica,sans-Serif" font-size="10.00">include</text>
</a>
</g>
</g>
<g id="clust2" class="cluster">
<title>clusterdir_d3aa5dcb7b4b31d0340eb0db650fa34c</title>
<g id="a_clust2"><a xlink:href="dir_d3aa5dcb7b4b31d0340eb0db650fa34c.html" target="_top">
<polygon fill="#eeeeff" stroke="black" points="16,-16 16,-140 86,-140 86,-16 16,-16"/>
</a>
</g>
</g>
<!-- dir_d3aa5dcb7b4b31d0340eb0db650fa34c -->
<g id="node1" class="node">
<title>dir_d3aa5dcb7b4b31d0340eb0db650fa34c</title>
<text text-anchor="middle" x="51" y="-111.5" font-family="Helvetica,sans-Serif" font-size="10.00">torq</text>
</g>
<!-- dir_f34a13a3f4052837337085b55f0c81fc -->
<g id="node2" class="node">
<title>dir_f34a13a3f4052837337085b55f0c81fc</title>
<g id="a_node2"><a xlink:href="dir_f34a13a3f4052837337085b55f0c81fc.html" target="_top" xlink:title="scservo">
<polygon fill="white" stroke="black" points="78,-60 24,-60 24,-24 78,-24 78,-60"/>
<text text-anchor="middle" x="51" y="-39.5" font-family="Helvetica,sans-Serif" font-size="10.00">scservo</text>
</a>
</g>
</g>
<!-- dir_d3aa5dcb7b4b31d0340eb0db650fa34c&#45;&gt;dir_f34a13a3f4052837337085b55f0c81fc -->
<g id="edge1" class="edge">
<title>dir_d3aa5dcb7b4b31d0340eb0db650fa34c&#45;&gt;dir_f34a13a3f4052837337085b55f0c81fc</title>
<path fill="none" stroke="black" d="M51,-95.7C51,-87.98 51,-78.71 51,-70.11"/>
<polygon fill="black" stroke="black" points="54.5,-70.1 51,-60.1 47.5,-70.1 54.5,-70.1"/>
<g id="a_edge1&#45;headlabel"><a xlink:href="dir_000002_000003.html" target="_top" xlink:title="1">
<text text-anchor="middle" x="57.34" y="-71.2" font-family="Helvetica,sans-Serif" font-size="10.00">1</text>
</a>
</g>
</g>
</g>
</svg>
