<?xml version="1.0" encoding="UTF-8" standalone="no"?>
<!DOCTYPE svg PUBLIC "-//W3C//DTD SVG 1.1//EN"
 "http://www.w3.org/Graphics/SVG/1.1/DTD/svg11.dtd">
<!-- Generated by graphviz version 2.43.0 (0)
 -->
<!-- Title: SystemDiagram Pages: 1 -->
<svg width="627pt" height="428pt"
 viewBox="0.00 0.00 627.00 428.00" xmlns="http://www.w3.org/2000/svg" xmlns:xlink="http://www.w3.org/1999/xlink">
<g id="graph0" class="graph" transform="scale(1 1) rotate(0) translate(4 424)">
<title>SystemDiagram</title>
<polygon fill="white" stroke="transparent" points="-4,4 -4,-424 623,-424 623,4 -4,4"/>
<g id="clust1" class="cluster">
<title>cluster_inputs</title>
<path fill="#e6e6fa" stroke="#9370db" stroke-width="2" d="M87,-337C87,-337 418,-337 418,-337 424,-337 430,-343 430,-349 430,-349 430,-400 430,-400 430,-406 424,-412 418,-412 418,-412 87,-412 87,-412 81,-412 75,-406 75,-400 75,-400 75,-349 75,-349 75,-343 81,-337 87,-337"/>
<text text-anchor="middle" x="252.5" y="-396.8" font-family="Times,serif" font-size="14.00">Inputs</text>
</g>
<g id="clust2" class="cluster">
<title>cluster_models</title>
<path fill="#f0f0f0" stroke="#808080" d="M47,-254C47,-254 274,-254 274,-254 280,-254 286,-260 286,-266 286,-266 286,-317 286,-317 286,-323 280,-329 274,-329 274,-329 47,-329 47,-329 41,-329 35,-323 35,-317 35,-317 35,-266 35,-266 35,-260 41,-254 47,-254"/>
<text text-anchor="middle" x="160.5" y="-313.8" font-family="Times,serif" font-size="14.00">Models</text>
</g>
<g id="clust3" class="cluster">
<title>cluster_subsystems</title>
<path fill="#e8e8e8" stroke="#606060" stroke-width="2" d="M20,-91C20,-91 599,-91 599,-91 605,-91 611,-97 611,-103 611,-103 611,-162 611,-162 611,-168 605,-174 599,-174 599,-174 20,-174 20,-174 14,-174 8,-168 8,-162 8,-162 8,-103 8,-103 8,-97 14,-91 20,-91"/>
<text text-anchor="middle" x="309.5" y="-158.8" font-family="Times,serif" font-size="14.00">Subsystems</text>
</g>
<g id="clust4" class="cluster">
<title>cluster_output</title>
<path fill="#e8e0f0" stroke="#4b0082" stroke-width="2" d="M76,-8C76,-8 320,-8 320,-8 326,-8 332,-14 332,-20 332,-20 332,-71 332,-71 332,-77 326,-83 320,-83 320,-83 76,-83 76,-83 70,-83 64,-77 64,-71 64,-71 64,-20 64,-20 64,-14 70,-8 76,-8"/>
<text text-anchor="middle" x="198" y="-67.8" font-family="Times,serif" font-size="14.00">Output</text>
</g>
<!-- Scene -->
<g id="node1" class="node">
<title>Scene</title>
<path fill="#e6e6fa" stroke="black" d="M247,-381C247,-381 217,-381 217,-381 211,-381 205,-375 205,-369 205,-369 205,-357 205,-357 205,-351 211,-345 217,-345 217,-345 247,-345 247,-345 253,-345 259,-351 259,-357 259,-357 259,-369 259,-369 259,-375 253,-381 247,-381"/>
<text text-anchor="middle" x="232" y="-366.2" font-family="Helvetica,sans-Serif" font-size="11.00">Scene</text>
<text text-anchor="middle" x="232" y="-354.2" font-family="Helvetica,sans-Serif" font-size="11.00">(MJCF)</text>
</g>
<!-- PinocchioModel -->
<g id="node4" class="node">
<title>PinocchioModel</title>
<path fill="#f0f0f0" stroke="black" d="M266,-298C266,-298 198,-298 198,-298 192,-298 186,-292 186,-286 186,-286 186,-274 186,-274 186,-268 192,-262 198,-262 198,-262 266,-262 266,-262 272,-262 278,-268 278,-274 278,-274 278,-286 278,-286 278,-292 272,-298 266,-298"/>
<text text-anchor="middle" x="232" y="-283.2" font-family="Helvetica,sans-Serif" font-size="11.00">Pinocchio</text>
<text text-anchor="middle" x="232" y="-271.2" font-family="Helvetica,sans-Serif" font-size="11.00">model + data</text>
</g>
<!-- Scene&#45;&gt;PinocchioModel -->
<!-- Robot -->
<g id="node2" class="node">
<title>Robot</title>
<path fill="#e6e6fa" stroke="black" d="M163.5,-381C163.5,-381 94.5,-381 94.5,-381 88.5,-381 82.5,-375 82.5,-369 82.5,-369 82.5,-357 82.5,-357 82.5,-351 88.5,-345 94.5,-345 94.5,-345 163.5,-345 163.5,-345 169.5,-345 175.5,-351 175.5,-357 175.5,-357 175.5,-369 175.5,-369 175.5,-375 169.5,-381 163.5,-381"/>
<text text-anchor="middle" x="129" y="-366.2" font-family="Helvetica,sans-Serif" font-size="11.00">Robot</text>
<text text-anchor="middle" x="129" y="-354.2" font-family="Helvetica,sans-Serif" font-size="11.00">(URDF / MJCF)</text>
</g>
<!-- Robot&#45;&gt;PinocchioModel -->
<g id="edge2" class="edge">
<title>Robot&#45;&gt;PinocchioModel</title>
<path fill="none" stroke="black" d="M168.33,-344.99C168.33,-320.58 168.33,-280 168.33,-280 168.33,-280 175.73,-280 175.73,-280"/>
<polygon fill="black" stroke="black" points="175.73,-283.5 185.73,-280 175.73,-276.5 175.73,-283.5"/>
</g>
<!-- MujocoModel -->
<g id="node5" class="node">
<title>MujocoModel</title>
<path fill="#f0f0f0" stroke="black" d="M145,-298C145,-298 55,-298 55,-298 49,-298 43,-292 43,-286 43,-286 43,-274 43,-274 43,-268 49,-262 55,-262 55,-262 145,-262 145,-262 151,-262 157,-268 157,-274 157,-274 157,-286 157,-286 157,-292 151,-298 145,-298"/>
<text text-anchor="middle" x="100" y="-283.2" font-family="Helvetica,sans-Serif" font-size="11.00">MuJoCo</text>
<text text-anchor="middle" x="100" y="-271.2" font-family="Helvetica,sans-Serif" font-size="11.00">mjModel / mjData</text>
</g>
<!-- Robot&#45;&gt;MujocoModel -->
<g id="edge3" class="edge">
<title>Robot&#45;&gt;MujocoModel</title>
<path fill="none" stroke="black" d="M119.75,-344.99C119.75,-344.99 119.75,-308.26 119.75,-308.26"/>
<polygon fill="black" stroke="black" points="123.25,-308.26 119.75,-298.26 116.25,-308.26 123.25,-308.26"/>
</g>
<!-- Config -->
<g id="node3" class="node">
<title>Config</title>
<path fill="#e6e6fa" stroke="black" d="M410,-381C410,-381 300,-381 300,-381 294,-381 288,-375 288,-369 288,-369 288,-357 288,-357 288,-351 294,-345 300,-345 300,-345 410,-345 410,-345 416,-345 422,-351 422,-357 422,-357 422,-369 422,-369 422,-375 416,-381 410,-381"/>
<text text-anchor="middle" x="355" y="-366.2" font-family="Helvetica,sans-Serif" font-size="11.00">RobotConfig</text>
<text text-anchor="middle" x="355" y="-354.2" font-family="Helvetica,sans-Serif" font-size="11.00">(frame, joints, paths)</text>
</g>
<!-- RobotSystem -->
<g id="node6" class="node">
<title>RobotSystem</title>
<path fill="#ffa500" stroke="black" d="M439,-226C439,-226 271,-226 271,-226 265,-226 259,-220 259,-214 259,-214 259,-194 259,-194 259,-188 265,-182 271,-182 271,-182 439,-182 439,-182 445,-182 451,-188 451,-194 451,-194 451,-214 451,-214 451,-220 445,-226 439,-226"/>
<text text-anchor="middle" x="355" y="-213.2" font-family="Helvetica,sans-Serif" font-size="11.00" fill="#1a1a1a">RobotSystem</text>
<text text-anchor="middle" x="355" y="-201.2" font-family="Helvetica,sans-Serif" font-size="11.00" fill="#1a1a1a">Top&#45;level API</text>
<text text-anchor="middle" x="355" y="-189.2" font-family="Helvetica,sans-Serif" font-size="11.00" fill="#1a1a1a">(targets, jog, gripper, IK tuning)</text>
</g>
<!-- Config&#45;&gt;RobotSystem -->
<!-- PinocchioModel&#45;&gt;RobotSystem -->
<g id="edge5" class="edge">
<title>PinocchioModel&#45;&gt;RobotSystem</title>
<path fill="none" stroke="black" d="M268.5,-261.99C268.5,-261.99 268.5,-236.23 268.5,-236.23"/>
<polygon fill="black" stroke="black" points="272,-236.23 268.5,-226.23 265,-236.23 272,-236.23"/>
</g>
<!-- MujocoModel&#45;&gt;RobotSystem -->
<g id="edge6" class="edge">
<title>MujocoModel&#45;&gt;RobotSystem</title>
<path fill="none" stroke="black" d="M100,-261.87C100,-241.43 100,-211 100,-211 100,-211 248.96,-211 248.96,-211"/>
<polygon fill="black" stroke="black" points="248.96,-214.5 258.96,-211 248.96,-207.5 248.96,-214.5"/>
</g>
<!-- HardwareDriver -->
<g id="node7" class="node">
<title>HardwareDriver</title>
<path fill="#b8e6b8" stroke="black" d="M591,-143C591,-143 511,-143 511,-143 505,-143 499,-137 499,-131 499,-131 499,-111 499,-111 499,-105 505,-99 511,-99 511,-99 591,-99 591,-99 597,-99 603,-105 603,-111 603,-111 603,-131 603,-131 603,-137 597,-143 591,-143"/>
<text text-anchor="middle" x="551" y="-130.2" font-family="Helvetica,sans-Serif" font-size="11.00">HardwareDriver</text>
<text text-anchor="middle" x="551" y="-118.2" font-family="Helvetica,sans-Serif" font-size="11.00">(HAL)</text>
<text text-anchor="middle" x="551" y="-106.2" font-family="Helvetica,sans-Serif" font-size="11.00">q, v sync</text>
</g>
<!-- RobotSystem&#45;&gt;HardwareDriver -->
<g id="edge7" class="edge">
<title>RobotSystem&#45;&gt;HardwareDriver</title>
<path fill="none" stroke="black" d="M451.28,-204C500.84,-204 551,-204 551,-204 551,-204 551,-153.24 551,-153.24"/>
<polygon fill="black" stroke="black" points="554.5,-153.24 551,-143.24 547.5,-153.24 554.5,-153.24"/>
</g>
<!-- KinematicsEngine -->
<g id="node8" class="node">
<title>KinematicsEngine</title>
<path fill="#b8e6b8" stroke="black" d="M458,-143C458,-143 368,-143 368,-143 362,-143 356,-137 356,-131 356,-131 356,-111 356,-111 356,-105 362,-99 368,-99 368,-99 458,-99 458,-99 464,-99 470,-105 470,-111 470,-111 470,-131 470,-131 470,-137 464,-143 458,-143"/>
<text text-anchor="middle" x="413" y="-130.2" font-family="Helvetica,sans-Serif" font-size="11.00">KinematicsEngine</text>
<text text-anchor="middle" x="413" y="-118.2" font-family="Helvetica,sans-Serif" font-size="11.00">Configuration</text>
<text text-anchor="middle" x="413" y="-106.2" font-family="Helvetica,sans-Serif" font-size="11.00">FK, Jacobians</text>
</g>
<!-- RobotSystem&#45;&gt;KinematicsEngine -->
<g id="edge8" class="edge">
<title>RobotSystem&#45;&gt;KinematicsEngine</title>
<path fill="none" stroke="black" d="M403.5,-181.76C403.5,-181.76 403.5,-153.02 403.5,-153.02"/>
<polygon fill="black" stroke="black" points="407,-153.02 403.5,-143.02 400,-153.02 407,-153.02"/>
</g>
<!-- Controller -->
<g id="node9" class="node">
<title>Controller</title>
<path fill="#b8e6b8" stroke="black" d="M314.5,-143C314.5,-143 215.5,-143 215.5,-143 209.5,-143 203.5,-137 203.5,-131 203.5,-131 203.5,-111 203.5,-111 203.5,-105 209.5,-99 215.5,-99 215.5,-99 314.5,-99 314.5,-99 320.5,-99 326.5,-105 326.5,-111 326.5,-111 326.5,-131 326.5,-131 326.5,-137 320.5,-143 314.5,-143"/>
<text text-anchor="middle" x="265" y="-130.2" font-family="Helvetica,sans-Serif" font-size="11.00">Controller</text>
<text text-anchor="middle" x="265" y="-118.2" font-family="Helvetica,sans-Serif" font-size="11.00">IK + Tasks + Limits</text>
<text text-anchor="middle" x="265" y="-106.2" font-family="Helvetica,sans-Serif" font-size="11.00">OSQP solve</text>
</g>
<!-- RobotSystem&#45;&gt;Controller -->
<g id="edge9" class="edge">
<title>RobotSystem&#45;&gt;Controller</title>
<path fill="none" stroke="black" d="M292.75,-181.76C292.75,-181.76 292.75,-153.02 292.75,-153.02"/>
<polygon fill="black" stroke="black" points="296.25,-153.02 292.75,-143.02 289.25,-153.02 296.25,-153.02"/>
</g>
<!-- Gui -->
<g id="node10" class="node">
<title>Gui</title>
<path fill="#b8e6b8" stroke="black" d="M162,-143C162,-143 28,-143 28,-143 22,-143 16,-137 16,-131 16,-131 16,-111 16,-111 16,-105 22,-99 28,-99 28,-99 162,-99 162,-99 168,-99 174,-105 174,-111 174,-111 174,-131 174,-131 174,-137 168,-143 162,-143"/>
<text text-anchor="middle" x="95" y="-130.2" font-family="Helvetica,sans-Serif" font-size="11.00">Gui</text>
<text text-anchor="middle" x="95" y="-118.2" font-family="Helvetica,sans-Serif" font-size="11.00">ImGui viewport</text>
<text text-anchor="middle" x="95" y="-106.2" font-family="Helvetica,sans-Serif" font-size="11.00">joint / cartesian / IK panel</text>
</g>
<!-- RobotSystem&#45;&gt;Gui -->
<g id="edge10" class="edge">
<title>RobotSystem&#45;&gt;Gui</title>
<path fill="none" stroke="black" d="M258.83,-196C210.75,-196 162.67,-196 162.67,-196 162.67,-196 162.67,-153.1 162.67,-153.1"/>
<polygon fill="black" stroke="black" points="166.17,-153.1 162.67,-143.1 159.17,-153.1 166.17,-153.1"/>
</g>
<!-- Commands -->
<g id="node11" class="node">
<title>Commands</title>
<path fill="#dda0dd" stroke="black" d="M311.5,-52C311.5,-52 218.5,-52 218.5,-52 212.5,-52 206.5,-46 206.5,-40 206.5,-40 206.5,-28 206.5,-28 206.5,-22 212.5,-16 218.5,-16 218.5,-16 311.5,-16 311.5,-16 317.5,-16 323.5,-22 323.5,-28 323.5,-28 323.5,-40 323.5,-40 323.5,-46 317.5,-52 311.5,-52"/>
<text text-anchor="middle" x="265" y="-37.2" font-family="Helvetica,sans-Serif" font-size="11.00">Joint commands</text>
<text text-anchor="middle" x="265" y="-25.2" font-family="Helvetica,sans-Serif" font-size="11.00">(q, v to hardware)</text>
</g>
<!-- HardwareDriver&#45;&gt;Commands -->
<g id="edge11" class="edge">
<title>HardwareDriver&#45;&gt;Commands</title>
<path fill="none" stroke="black" d="M551,-98.6C551,-72.82 551,-34 551,-34 551,-34 333.57,-34 333.57,-34"/>
<polygon fill="black" stroke="black" points="333.57,-30.5 323.57,-34 333.57,-37.5 333.57,-30.5"/>
</g>
<!-- Controller&#45;&gt;Commands -->
<g id="edge12" class="edge">
<title>Controller&#45;&gt;Commands</title>
<path fill="none" stroke="black" d="M265,-98.6C265,-98.6 265,-62.23 265,-62.23"/>
<polygon fill="black" stroke="black" points="268.5,-62.23 265,-52.23 261.5,-62.23 268.5,-62.23"/>
</g>
<!-- Rendered -->
<g id="node12" class="node">
<title>Rendered</title>
<path fill="#dda0dd" stroke="black" d="M165.5,-52C165.5,-52 84.5,-52 84.5,-52 78.5,-52 72.5,-46 72.5,-40 72.5,-40 72.5,-28 72.5,-28 72.5,-22 78.5,-16 84.5,-16 84.5,-16 165.5,-16 165.5,-16 171.5,-16 177.5,-22 177.5,-28 177.5,-28 177.5,-40 177.5,-40 177.5,-46 171.5,-52 165.5,-52"/>
<text text-anchor="middle" x="125" y="-37.2" font-family="Helvetica,sans-Serif" font-size="11.00">Rendered frame</text>
<text text-anchor="middle" x="125" y="-25.2" font-family="Helvetica,sans-Serif" font-size="11.00">(3D viewport)</text>
</g>
<!-- Gui&#45;&gt;Rendered -->
<g id="edge13" class="edge">
<title>Gui&#45;&gt;Rendered</title>
<path fill="none" stroke="black" d="M123.25,-98.6C123.25,-98.6 123.25,-62.23 123.25,-62.23"/>
<polygon fill="black" stroke="black" points="126.75,-62.23 123.25,-52.23 119.75,-62.23 126.75,-62.23"/>
</g>
</g>
</svg>
