<?xml version="1.0" encoding="UTF-8" standalone="no"?>
<!DOCTYPE svg PUBLIC "-//W3C//DTD SVG 1.1//EN"
 "http://www.w3.org/Graphics/SVG/1.1/DTD/svg11.dtd">
<!-- Generated by graphviz version 2.43.0 (0)
 -->
<!-- Title: OwnershipDiagram Pages: 1 -->
<svg width="881pt" height="232pt"
 viewBox="0.00 0.00 880.50 232.00" xmlns="http://www.w3.org/2000/svg" xmlns:xlink="http://www.w3.org/1999/xlink">
<g id="graph0" class="graph" transform="scale(1 1) rotate(0) translate(4 228)">
<title>OwnershipDiagram</title>
<polygon fill="white" stroke="transparent" points="-4,4 -4,-228 876.5,-228 876.5,4 -4,4"/>
<g id="clust1" class="cluster">
<title>cluster_owned</title>
<polygon fill="none" stroke="black" points="38,-84 38,-161 460,-161 460,-84 38,-84"/>
<text text-anchor="middle" x="249" y="-145.8" font-family="Times,serif" font-size="14.00">unique_ptr&lt;&gt;</text>
</g>
<!-- RobotSystem -->
<g id="node1" class="node">
<title>RobotSystem</title>
<path fill="none" stroke="black" d="M322,-224C322,-224 238,-224 238,-224 232,-224 226,-218 226,-212 226,-212 226,-200 226,-200 226,-194 232,-188 238,-188 238,-188 322,-188 322,-188 328,-188 334,-194 334,-200 334,-200 334,-212 334,-212 334,-218 328,-224 322,-224"/>
<text text-anchor="middle" x="280" y="-202.3" font-family="Helvetica,sans-Serif" font-size="14.00">RobotSystem</text>
</g>
<!-- HAL -->
<g id="node2" class="node">
<title>HAL</title>
<path fill="none" stroke="black" d="M179.5,-130C179.5,-130 58.5,-130 58.5,-130 52.5,-130 46.5,-124 46.5,-118 46.5,-118 46.5,-104 46.5,-104 46.5,-98 52.5,-92 58.5,-92 58.5,-92 179.5,-92 179.5,-92 185.5,-92 191.5,-98 191.5,-104 191.5,-104 191.5,-118 191.5,-118 191.5,-124 185.5,-130 179.5,-130"/>
<text text-anchor="middle" x="119" y="-114.8" font-family="Helvetica,sans-Serif" font-size="14.00">HardwareInterface</text>
<text text-anchor="middle" x="119" y="-99.8" font-family="Helvetica,sans-Serif" font-size="14.00">(MujocoDriver)</text>
</g>
<!-- RobotSystem&#45;&gt;HAL -->
<g id="edge1" class="edge">
<title>RobotSystem&#45;&gt;HAL</title>
<path fill="none" stroke="black" d="M248.73,-187.87C234.17,-179.82 216.64,-170.02 201,-161 186.74,-152.77 171.21,-143.56 157.54,-135.36"/>
<polygon fill="black" stroke="black" points="159.23,-132.29 148.86,-130.14 155.63,-138.29 159.23,-132.29"/>
</g>
<!-- KinematicsEngine -->
<g id="node3" class="node">
<title>KinematicsEngine</title>
<path fill="none" stroke="black" d="M338,-129C338,-129 222,-129 222,-129 216,-129 210,-123 210,-117 210,-117 210,-105 210,-105 210,-99 216,-93 222,-93 222,-93 338,-93 338,-93 344,-93 350,-99 350,-105 350,-105 350,-117 350,-117 350,-123 344,-129 338,-129"/>
<text text-anchor="middle" x="280" y="-107.3" font-family="Helvetica,sans-Serif" font-size="14.00">KinematicsEngine</text>
</g>
<!-- RobotSystem&#45;&gt;KinematicsEngine -->
<g id="edge2" class="edge">
<title>RobotSystem&#45;&gt;KinematicsEngine</title>
<path fill="none" stroke="black" d="M280,-187.94C280,-174.39 280,-155.18 280,-139.47"/>
<polygon fill="black" stroke="black" points="283.5,-139.26 280,-129.26 276.5,-139.26 283.5,-139.26"/>
</g>
<!-- Controller -->
<g id="node4" class="node">
<title>Controller</title>
<path fill="none" stroke="black" d="M440,-129C440,-129 380,-129 380,-129 374,-129 368,-123 368,-117 368,-117 368,-105 368,-105 368,-99 374,-93 380,-93 380,-93 440,-93 440,-93 446,-93 452,-99 452,-105 452,-105 452,-117 452,-117 452,-123 446,-129 440,-129"/>
<text text-anchor="middle" x="410" y="-107.3" font-family="Helvetica,sans-Serif" font-size="14.00">Controller</text>
</g>
<!-- RobotSystem&#45;&gt;Controller -->
<g id="edge3" class="edge">
<title>RobotSystem&#45;&gt;Controller</title>
<path fill="none" stroke="black" d="M315.01,-187.99C329.18,-180.49 345.37,-171.08 359,-161 368.83,-153.73 378.72,-144.71 387.15,-136.39"/>
<polygon fill="black" stroke="black" points="389.89,-138.6 394.42,-129.03 384.91,-133.68 389.89,-138.6"/>
</g>
<!-- IKConfig -->
<g id="node5" class="node">
<title>IKConfig</title>
<text text-anchor="middle" x="37" y="-14.3" font-family="Helvetica,sans-Serif" font-size="14.00">IKConfig</text>
</g>
<!-- Controller&#45;&gt;IKConfig -->
<g id="edge4" class="edge">
<title>Controller&#45;&gt;IKConfig</title>
<path fill="none" stroke="black" d="M381.71,-92.99C374.53,-89.41 366.67,-86.09 359,-84 288.12,-64.69 266.07,-88.25 194,-74 145.74,-64.46 133.47,-54.66 83.54,-36.23"/>
<polygon fill="black" stroke="black" points="84.72,-32.93 74.13,-32.81 82.34,-39.51 84.72,-32.93"/>
<text text-anchor="middle" x="206.5" y="-61.8" font-family="Helvetica,sans-Serif" font-size="9.00">value</text>
</g>
<!-- InverseKinematics -->
<g id="node6" class="node">
<title>InverseKinematics</title>
<text text-anchor="middle" x="164" y="-14.3" font-family="Helvetica,sans-Serif" font-size="14.00">InverseKinematics</text>
</g>
<!-- Controller&#45;&gt;InverseKinematics -->
<g id="edge5" class="edge">
<title>Controller&#45;&gt;InverseKinematics</title>
<path fill="none" stroke="black" d="M381.09,-92.99C374.06,-89.5 366.43,-86.22 359,-84 320.02,-72.35 306.9,-85.94 268,-74 243.45,-66.46 217.92,-53.06 198.31,-41.37"/>
<polygon fill="black" stroke="black" points="200.09,-38.36 189.73,-36.15 196.45,-44.34 200.09,-38.36"/>
<text text-anchor="middle" x="299" y="-66.8" font-family="Helvetica,sans-Serif" font-size="9.00">value</text>
<text text-anchor="middle" x="299" y="-56.8" font-family="Helvetica,sans-Serif" font-size="9.00">(OSQP solver)</text>
</g>
<!-- FrameTask -->
<g id="node7" class="node">
<title>FrameTask</title>
<text text-anchor="middle" x="299" y="-14.3" font-family="Helvetica,sans-Serif" font-size="14.00">FrameTask</text>
</g>
<!-- Controller&#45;&gt;FrameTask -->
<g id="edge6" class="edge">
<title>Controller&#45;&gt;FrameTask</title>
<path fill="none" stroke="black" d="M382.41,-92.98C373.72,-87.26 364.25,-80.64 356,-74 344.39,-64.65 332.4,-53.37 322.42,-43.45"/>
<polygon fill="black" stroke="black" points="324.75,-40.83 315.23,-36.19 319.78,-45.76 324.75,-40.83"/>
<text text-anchor="middle" x="381" y="-61.8" font-family="Helvetica,sans-Serif" font-size="9.00">unique_ptr</text>
</g>
<!-- PostureTask -->
<g id="node8" class="node">
<title>PostureTask</title>
<text text-anchor="middle" x="410" y="-14.3" font-family="Helvetica,sans-Serif" font-size="14.00">PostureTask</text>
</g>
<!-- Controller&#45;&gt;PostureTask -->
<g id="edge7" class="edge">
<title>Controller&#45;&gt;PostureTask</title>
<path fill="none" stroke="black" d="M410,-92.88C410,-79.79 410,-61.48 410,-46.36"/>
<polygon fill="black" stroke="black" points="413.5,-46.04 410,-36.04 406.5,-46.04 413.5,-46.04"/>
<text text-anchor="middle" x="435" y="-61.8" font-family="Helvetica,sans-Serif" font-size="9.00">unique_ptr</text>
</g>
<!-- DampingTask -->
<g id="node9" class="node">
<title>DampingTask</title>
<text text-anchor="middle" x="532" y="-14.3" font-family="Helvetica,sans-Serif" font-size="14.00">DampingTask</text>
</g>
<!-- Controller&#45;&gt;DampingTask -->
<g id="edge8" class="edge">
<title>Controller&#45;&gt;DampingTask</title>
<path fill="none" stroke="black" d="M436.7,-92.9C445.51,-87.07 455.29,-80.41 464,-74 477.42,-64.13 491.82,-52.62 503.9,-42.69"/>
<polygon fill="black" stroke="black" points="506.38,-45.18 511.85,-36.11 501.92,-39.79 506.38,-45.18"/>
<text text-anchor="middle" x="513" y="-61.8" font-family="Helvetica,sans-Serif" font-size="9.00">unique_ptr</text>
</g>
<!-- VelocityLimit -->
<g id="node10" class="node">
<title>VelocityLimit</title>
<text text-anchor="middle" x="657" y="-14.3" font-family="Helvetica,sans-Serif" font-size="14.00">VelocityLimit</text>
</g>
<!-- Controller&#45;&gt;VelocityLimit -->
<g id="edge9" class="edge">
<title>Controller&#45;&gt;VelocityLimit</title>
<path fill="none" stroke="black" d="M452.22,-100.54C478.44,-94.16 512.61,-84.93 542,-74 567.11,-64.66 594.2,-51.85 615.77,-40.94"/>
<polygon fill="black" stroke="black" points="617.65,-43.91 624.96,-36.24 614.46,-37.68 617.65,-43.91"/>
<text text-anchor="middle" x="612" y="-61.8" font-family="Helvetica,sans-Serif" font-size="9.00">unique_ptr</text>
</g>
<!-- ConfigurationLimit -->
<g id="node11" class="node">
<title>ConfigurationLimit</title>
<text text-anchor="middle" x="800" y="-14.3" font-family="Helvetica,sans-Serif" font-size="14.00">ConfigurationLimit</text>
</g>
<!-- Controller&#45;&gt;ConfigurationLimit -->
<g id="edge10" class="edge">
<title>Controller&#45;&gt;ConfigurationLimit</title>
<path fill="none" stroke="black" d="M452.18,-105.72C498.83,-100.45 576.01,-90.17 641,-74 677.32,-64.97 717.11,-51.2 747.81,-39.7"/>
<polygon fill="black" stroke="black" points="749.32,-42.86 757.44,-36.05 746.84,-36.32 749.32,-42.86"/>
<text text-anchor="middle" x="732" y="-61.8" font-family="Helvetica,sans-Serif" font-size="9.00">unique_ptr</text>
</g>
</g>
</svg>
