<?xml version="1.0" encoding="UTF-8" standalone="no"?>
<!DOCTYPE svg PUBLIC "-//W3C//DTD SVG 1.1//EN"
 "http://www.w3.org/Graphics/SVG/1.1/DTD/svg11.dtd">
<!-- Generated by graphviz version 2.43.0 (0)
 -->
<!-- Title: OwnershipDiagram Pages: 1 -->
<svg width="881pt" height="230pt"
 viewBox="0.00 0.00 880.50 230.00" xmlns="http://www.w3.org/2000/svg" xmlns:xlink="http://www.w3.org/1999/xlink">
<g id="graph0" class="graph" transform="scale(1 1) rotate(0) translate(4 226)">
<title>OwnershipDiagram</title>
<polygon fill="white" stroke="transparent" points="-4,4 -4,-226 876.5,-226 876.5,4 -4,4"/>
<g id="clust1" class="cluster">
<title>cluster_owned</title>
<polygon fill="none" stroke="black" points="38,-84 38,-159 460,-159 460,-84 38,-84"/>
<text text-anchor="middle" x="249" y="-143.8" font-family="Times,serif" font-size="14.00">unique_ptr</text>
</g>
<!-- RobotSystem -->
<g id="node1" class="node">
<title>RobotSystem</title>
<path fill="none" stroke="black" d="M322,-222C322,-222 238,-222 238,-222 232,-222 226,-216 226,-210 226,-210 226,-198 226,-198 226,-192 232,-186 238,-186 238,-186 322,-186 322,-186 328,-186 334,-192 334,-198 334,-198 334,-210 334,-210 334,-216 328,-222 322,-222"/>
<text text-anchor="middle" x="280" y="-200.3" font-family="Helvetica,sans-Serif" font-size="14.00">RobotSystem</text>
</g>
<!-- HAL -->
<g id="node2" class="node">
<title>HAL</title>
<path fill="none" stroke="black" d="M179.5,-128C179.5,-128 58.5,-128 58.5,-128 52.5,-128 46.5,-122 46.5,-116 46.5,-116 46.5,-104 46.5,-104 46.5,-98 52.5,-92 58.5,-92 58.5,-92 179.5,-92 179.5,-92 185.5,-92 191.5,-98 191.5,-104 191.5,-104 191.5,-116 191.5,-116 191.5,-122 185.5,-128 179.5,-128"/>
<text text-anchor="middle" x="119" y="-106.3" font-family="Helvetica,sans-Serif" font-size="14.00">HardwareInterface</text>
</g>
<!-- RobotSystem&#45;&gt;HAL -->
<g id="edge1" class="edge">
<title>RobotSystem&#45;&gt;HAL</title>
<path fill="none" stroke="black" d="M248.77,-185.81C234.21,-177.74 216.68,-167.95 201,-159 186.43,-150.68 170.49,-141.39 156.57,-133.22"/>
<polygon fill="black" stroke="black" points="158.15,-130.09 147.75,-128.03 154.6,-136.12 158.15,-130.09"/>
</g>
<!-- KinematicsEngine -->
<g id="node3" class="node">
<title>KinematicsEngine</title>
<path fill="none" stroke="black" d="M338,-128C338,-128 222,-128 222,-128 216,-128 210,-122 210,-116 210,-116 210,-104 210,-104 210,-98 216,-92 222,-92 222,-92 338,-92 338,-92 344,-92 350,-98 350,-104 350,-104 350,-116 350,-116 350,-122 344,-128 338,-128"/>
<text text-anchor="middle" x="280" y="-106.3" font-family="Helvetica,sans-Serif" font-size="14.00">KinematicsEngine</text>
</g>
<!-- RobotSystem&#45;&gt;KinematicsEngine -->
<g id="edge2" class="edge">
<title>RobotSystem&#45;&gt;KinematicsEngine</title>
<path fill="none" stroke="black" d="M280,-185.7C280,-172.46 280,-153.95 280,-138.66"/>
<polygon fill="black" stroke="black" points="283.5,-138.23 280,-128.23 276.5,-138.23 283.5,-138.23"/>
</g>
<!-- Controller -->
<g id="node4" class="node">
<title>Controller</title>
<path fill="none" stroke="black" d="M440,-128C440,-128 380,-128 380,-128 374,-128 368,-122 368,-116 368,-116 368,-104 368,-104 368,-98 374,-92 380,-92 380,-92 440,-92 440,-92 446,-92 452,-98 452,-104 452,-104 452,-116 452,-116 452,-122 446,-128 440,-128"/>
<text text-anchor="middle" x="410" y="-106.3" font-family="Helvetica,sans-Serif" font-size="14.00">Controller</text>
</g>
<!-- RobotSystem&#45;&gt;Controller -->
<g id="edge3" class="edge">
<title>RobotSystem&#45;&gt;Controller</title>
<path fill="none" stroke="black" d="M314.96,-185.92C329.12,-178.41 345.32,-169.01 359,-159 368.62,-151.96 378.34,-143.28 386.69,-135.24"/>
<polygon fill="black" stroke="black" points="389.26,-137.62 393.92,-128.11 384.34,-132.64 389.26,-137.62"/>
</g>
<!-- IKConfig -->
<g id="node5" class="node">
<title>IKConfig</title>
<text text-anchor="middle" x="37" y="-14.3" font-family="Helvetica,sans-Serif" font-size="14.00">IKConfig</text>
</g>
<!-- Controller&#45;&gt;IKConfig -->
<g id="edge4" class="edge">
<title>Controller&#45;&gt;IKConfig</title>
<path fill="none" stroke="black" d="M380.02,-91.88C373.29,-88.74 366.06,-85.86 359,-84 287.97,-65.24 266.07,-88.25 194,-74 145.74,-64.46 133.47,-54.66 83.54,-36.23"/>
<polygon fill="black" stroke="black" points="84.72,-32.93 74.13,-32.81 82.34,-39.51 84.72,-32.93"/>
<text text-anchor="middle" x="206.5" y="-61.8" font-family="Helvetica,sans-Serif" font-size="9.00">value</text>
</g>
<!-- InverseKinematics -->
<g id="node6" class="node">
<title>InverseKinematics</title>
<text text-anchor="middle" x="164" y="-14.3" font-family="Helvetica,sans-Serif" font-size="14.00">InverseKinematics</text>
</g>
<!-- Controller&#45;&gt;InverseKinematics -->
<g id="edge5" class="edge">
<title>Controller&#45;&gt;InverseKinematics</title>
<path fill="none" stroke="black" d="M379.4,-91.89C372.84,-88.82 365.82,-85.98 359,-84 319.93,-72.65 306.9,-85.94 268,-74 243.45,-66.46 217.92,-53.06 198.31,-41.37"/>
<polygon fill="black" stroke="black" points="200.09,-38.36 189.73,-36.15 196.45,-44.34 200.09,-38.36"/>
<text text-anchor="middle" x="299" y="-66.8" font-family="Helvetica,sans-Serif" font-size="9.00">value</text>
<text text-anchor="middle" x="299" y="-56.8" font-family="Helvetica,sans-Serif" font-size="9.00">(OSQP solver)</text>
</g>
<!-- FrameTask -->
<g id="node7" class="node">
<title>FrameTask</title>
<text text-anchor="middle" x="299" y="-14.3" font-family="Helvetica,sans-Serif" font-size="14.00">FrameTask</text>
</g>
<!-- Controller&#45;&gt;FrameTask -->
<g id="edge6" class="edge">
<title>Controller&#45;&gt;FrameTask</title>
<path fill="none" stroke="black" d="M381.26,-91.83C372.88,-86.44 363.87,-80.25 356,-74 344.33,-64.73 332.33,-53.45 322.36,-43.53"/>
<polygon fill="black" stroke="black" points="324.7,-40.91 315.18,-36.26 319.72,-45.83 324.7,-40.91"/>
<text text-anchor="middle" x="381" y="-61.8" font-family="Helvetica,sans-Serif" font-size="9.00">unique_ptr</text>
</g>
<!-- PostureTask -->
<g id="node8" class="node">
<title>PostureTask</title>
<text text-anchor="middle" x="410" y="-14.3" font-family="Helvetica,sans-Serif" font-size="14.00">PostureTask</text>
</g>
<!-- Controller&#45;&gt;PostureTask -->
<g id="edge7" class="edge">
<title>Controller&#45;&gt;PostureTask</title>
<path fill="none" stroke="black" d="M410,-91.65C410,-78.82 410,-61.11 410,-46.38"/>
<polygon fill="black" stroke="black" points="413.5,-46.3 410,-36.3 406.5,-46.3 413.5,-46.3"/>
<text text-anchor="middle" x="435" y="-61.8" font-family="Helvetica,sans-Serif" font-size="9.00">unique_ptr</text>
</g>
<!-- DampingTask -->
<g id="node9" class="node">
<title>DampingTask</title>
<text text-anchor="middle" x="532" y="-14.3" font-family="Helvetica,sans-Serif" font-size="14.00">DampingTask</text>
</g>
<!-- Controller&#45;&gt;DampingTask -->
<g id="edge8" class="edge">
<title>Controller&#45;&gt;DampingTask</title>
<path fill="none" stroke="black" d="M437.57,-91.92C446.16,-86.39 455.59,-80.1 464,-74 477.48,-64.22 491.89,-52.72 503.96,-42.78"/>
<polygon fill="black" stroke="black" points="506.45,-45.26 511.91,-36.18 501.98,-39.88 506.45,-45.26"/>
<text text-anchor="middle" x="513" y="-61.8" font-family="Helvetica,sans-Serif" font-size="9.00">unique_ptr</text>
</g>
<!-- VelocityLimit -->
<g id="node10" class="node">
<title>VelocityLimit</title>
<text text-anchor="middle" x="657" y="-14.3" font-family="Helvetica,sans-Serif" font-size="14.00">VelocityLimit</text>
</g>
<!-- Controller&#45;&gt;VelocityLimit -->
<g id="edge9" class="edge">
<title>Controller&#45;&gt;VelocityLimit</title>
<path fill="none" stroke="black" d="M452.24,-99.93C478.45,-93.78 512.63,-84.81 542,-74 567.44,-64.64 594.87,-51.64 616.55,-40.63"/>
<polygon fill="black" stroke="black" points="618.18,-43.73 625.47,-36.05 614.98,-37.51 618.18,-43.73"/>
<text text-anchor="middle" x="612" y="-61.8" font-family="Helvetica,sans-Serif" font-size="9.00">unique_ptr</text>
</g>
<!-- ConfigurationLimit -->
<g id="node11" class="node">
<title>ConfigurationLimit</title>
<text text-anchor="middle" x="800" y="-14.3" font-family="Helvetica,sans-Serif" font-size="14.00">ConfigurationLimit</text>
</g>
<!-- Controller&#45;&gt;ConfigurationLimit -->
<g id="edge10" class="edge">
<title>Controller&#45;&gt;ConfigurationLimit</title>
<path fill="none" stroke="black" d="M452.18,-104.95C498.84,-99.93 576.02,-90.02 641,-74 677.34,-65.04 717.13,-51.27 747.82,-39.75"/>
<polygon fill="black" stroke="black" points="749.34,-42.92 757.45,-36.1 746.86,-36.37 749.34,-42.92"/>
<text text-anchor="middle" x="732" y="-61.8" font-family="Helvetica,sans-Serif" font-size="9.00">unique_ptr</text>
</g>
</g>
</svg>
