<?xml version="1.0" encoding="UTF-8" standalone="no"?>
<!DOCTYPE svg PUBLIC "-//W3C//DTD SVG 1.1//EN"
 "http://www.w3.org/Graphics/SVG/1.1/DTD/svg11.dtd">
<!-- Generated by graphviz version 2.43.0 (0)
 -->
<!-- Title: Graphical Class Hierarchy Pages: 1 -->
<svg width="264pt" height="104pt"
 viewBox="0.00 0.00 264.00 104.00" xmlns="http://www.w3.org/2000/svg" xmlns:xlink="http://www.w3.org/1999/xlink">
<g id="graph0" class="graph" transform="scale(1 1) rotate(0) translate(4 100)">
<title>Graphical Class Hierarchy</title>
<polygon fill="white" stroke="transparent" points="-4,4 -4,-100 260,-100 260,4 -4,4"/>
<!-- Node0 -->
<g id="node1" class="node">
<title>Node0</title>
<g id="a_node1"><a xlink:href="classtorq_1_1Barrier.html" target="_top" xlink:title="Abstract base class for Control Barrier Functions (CBFs).">
<polygon fill="white" stroke="black" points="0,-38.5 0,-57.5 75,-57.5 75,-38.5 0,-38.5"/>
<text text-anchor="middle" x="37.5" y="-45.5" font-family="Helvetica,sans-Serif" font-size="10.00">torq::Barrier</text>
</a>
</g>
</g>
<!-- Node1 -->
<g id="node2" class="node">
<title>Node1</title>
<g id="a_node2"><a xlink:href="classtorq_1_1BodySphericalBarrier.html" target="_top" xlink:title="Minimum&#45;distance barrier between two frames (spherical approximation).">
<polygon fill="white" stroke="black" points="111,-76.5 111,-95.5 256,-95.5 256,-76.5 111,-76.5"/>
<text text-anchor="middle" x="183.5" y="-83.5" font-family="Helvetica,sans-Serif" font-size="10.00">torq::BodySphericalBarrier</text>
</a>
</g>
</g>
<!-- Node0&#45;&gt;Node1 -->
<g id="edge1" class="edge">
<title>Node0&#45;&gt;Node1</title>
<path fill="none" stroke="midnightblue" d="M84.67,-60.18C104.66,-65.46 127.72,-71.54 146.42,-76.48"/>
<polygon fill="midnightblue" stroke="midnightblue" points="85.4,-56.76 74.84,-57.59 83.61,-63.52 85.4,-56.76"/>
</g>
<!-- Node2 -->
<g id="node3" class="node">
<title>Node2</title>
<g id="a_node3"><a xlink:href="classtorq_1_1PositionBarrier.html" target="_top" xlink:title="Cartesian position barrier on a robot frame.">
<polygon fill="white" stroke="black" points="126.5,-38.5 126.5,-57.5 240.5,-57.5 240.5,-38.5 126.5,-38.5"/>
<text text-anchor="middle" x="183.5" y="-45.5" font-family="Helvetica,sans-Serif" font-size="10.00">torq::PositionBarrier</text>
</a>
</g>
</g>
<!-- Node0&#45;&gt;Node2 -->
<g id="edge2" class="edge">
<title>Node0&#45;&gt;Node2</title>
<path fill="none" stroke="midnightblue" d="M85.37,-48C98.41,-48 112.72,-48 126.25,-48"/>
<polygon fill="midnightblue" stroke="midnightblue" points="85.21,-44.5 75.21,-48 85.21,-51.5 85.21,-44.5"/>
</g>
<!-- Node3 -->
<g id="node4" class="node">
<title>Node3</title>
<g id="a_node4"><a xlink:href="classtorq_1_1SelfCollisionBarrier.html" target="_top" xlink:title="Self&#45;collision avoidance barrier using Pinocchio geometry distances.">
<polygon fill="white" stroke="black" points="115.5,-0.5 115.5,-19.5 251.5,-19.5 251.5,-0.5 115.5,-0.5"/>
<text text-anchor="middle" x="183.5" y="-7.5" font-family="Helvetica,sans-Serif" font-size="10.00">torq::SelfCollisionBarrier</text>
</a>
</g>
</g>
<!-- Node0&#45;&gt;Node3 -->
<g id="edge3" class="edge">
<title>Node0&#45;&gt;Node3</title>
<path fill="none" stroke="midnightblue" d="M84.67,-35.82C104.66,-30.54 127.72,-24.46 146.42,-19.52"/>
<polygon fill="midnightblue" stroke="midnightblue" points="83.61,-32.48 74.84,-38.41 85.4,-39.24 83.61,-32.48"/>
</g>
</g>
</svg>
