<?xml version="1.0" encoding="UTF-8" standalone="no"?>
<!DOCTYPE svg PUBLIC "-//W3C//DTD SVG 1.1//EN"
 "http://www.w3.org/Graphics/SVG/1.1/DTD/svg11.dtd">
<!-- Generated by graphviz version 2.43.0 (0)
 -->
<!-- Title: Graphical Class Hierarchy Pages: 1 -->
<svg width="243pt" height="66pt"
 viewBox="0.00 0.00 243.00 66.00" xmlns="http://www.w3.org/2000/svg" xmlns:xlink="http://www.w3.org/1999/xlink">
<g id="graph0" class="graph" transform="scale(1 1) rotate(0) translate(4 62)">
<title>Graphical Class Hierarchy</title>
<polygon fill="white" stroke="transparent" points="-4,4 -4,-62 239,-62 239,4 -4,4"/>
<!-- Node0 -->
<g id="node1" class="node">
<title>Node0</title>
<g id="a_node1"><a xlink:href="classtorq_1_1Limit.html" target="_top" xlink:title="Abstract base class for kinematic limits (QP inequality constraints).">
<polygon fill="white" stroke="black" points="0,-19.5 0,-38.5 67,-38.5 67,-19.5 0,-19.5"/>
<text text-anchor="middle" x="33.5" y="-26.5" font-family="Helvetica,sans-Serif" font-size="10.00">torq::Limit</text>
</a>
</g>
</g>
<!-- Node1 -->
<g id="node2" class="node">
<title>Node1</title>
<g id="a_node2"><a xlink:href="classtorq_1_1ConfigurationLimit.html" target="_top" xlink:title="Joint position (configuration) limits.">
<polygon fill="white" stroke="black" points="103,-38.5 103,-57.5 235,-57.5 235,-38.5 103,-38.5"/>
<text text-anchor="middle" x="169" y="-45.5" font-family="Helvetica,sans-Serif" font-size="10.00">torq::ConfigurationLimit</text>
</a>
</g>
</g>
<!-- Node0&#45;&gt;Node1 -->
<g id="edge1" class="edge">
<title>Node0&#45;&gt;Node1</title>
<path fill="none" stroke="midnightblue" d="M77.17,-35.07C85.34,-36.24 94.07,-37.48 102.77,-38.72"/>
<polygon fill="midnightblue" stroke="midnightblue" points="77.55,-31.59 67.16,-33.65 76.56,-38.52 77.55,-31.59"/>
</g>
<!-- Node2 -->
<g id="node3" class="node">
<title>Node2</title>
<g id="a_node3"><a xlink:href="classtorq_1_1VelocityLimit.html" target="_top" xlink:title="Joint velocity limits.">
<polygon fill="white" stroke="black" points="116,-0.5 116,-19.5 222,-19.5 222,-0.5 116,-0.5"/>
<text text-anchor="middle" x="169" y="-7.5" font-family="Helvetica,sans-Serif" font-size="10.00">torq::VelocityLimit</text>
</a>
</g>
</g>
<!-- Node0&#45;&gt;Node2 -->
<g id="edge2" class="edge">
<title>Node0&#45;&gt;Node2</title>
<path fill="none" stroke="midnightblue" d="M77.17,-22.93C89.49,-21.17 103.08,-19.24 115.91,-17.41"/>
<polygon fill="midnightblue" stroke="midnightblue" points="76.56,-19.48 67.16,-24.35 77.55,-26.41 76.56,-19.48"/>
</g>
</g>
</svg>
