<?xml version="1.0" encoding="UTF-8" standalone="no"?>
<!DOCTYPE svg PUBLIC "-//W3C//DTD SVG 1.1//EN"
 "http://www.w3.org/Graphics/SVG/1.1/DTD/svg11.dtd">
<!-- Generated by graphviz version 2.43.0 (0)
 -->
<!-- Title: Graphical Class Hierarchy Pages: 1 -->
<svg width="256pt" height="154pt"
 viewBox="0.00 0.00 256.00 154.00" xmlns="http://www.w3.org/2000/svg" xmlns:xlink="http://www.w3.org/1999/xlink">
<g id="graph0" class="graph" transform="scale(1 1) rotate(0) translate(4 150)">
<title>Graphical Class Hierarchy</title>
<polygon fill="white" stroke="transparent" points="-4,4 -4,-150 252,-150 252,4 -4,4"/>
<!-- Node0 -->
<g id="node1" class="node">
<title>Node0</title>
<g id="a_node1"><a xlink:href="classtorq_1_1Limit.html" target="_top" xlink:title="Abstract base class for kinematic limits (QP inequality constraints).">
<polygon fill="white" stroke="black" points="0,-66.5 0,-85.5 67,-85.5 67,-66.5 0,-66.5"/>
<text text-anchor="middle" x="33.5" y="-73.5" font-family="Helvetica,sans-Serif" font-size="10.00">torq::Limit</text>
</a>
</g>
</g>
<!-- Node1 -->
<g id="node2" class="node">
<title>Node1</title>
<g id="a_node2"><a xlink:href="classtorq_1_1AccelerationLimit.html" target="_top" xlink:title="Joint acceleration limits with braking&#45;distance bounds.">
<polygon fill="white" stroke="black" points="111.5,-126.5 111.5,-145.5 239.5,-145.5 239.5,-126.5 111.5,-126.5"/>
<text text-anchor="middle" x="175.5" y="-133.5" font-family="Helvetica,sans-Serif" font-size="10.00">torq::AccelerationLimit</text>
</a>
</g>
</g>
<!-- Node0&#45;&gt;Node1 -->
<g id="edge1" class="edge">
<title>Node0&#45;&gt;Node1</title>
<path fill="none" stroke="midnightblue" d="M56.13,-91.09C69.21,-99.66 86.51,-110.04 103,-117 111.76,-120.7 121.42,-123.84 130.75,-126.45"/>
<polygon fill="midnightblue" stroke="midnightblue" points="58.06,-88.17 47.81,-85.51 54.16,-93.98 58.06,-88.17"/>
</g>
<!-- Node2 -->
<g id="node3" class="node">
<title>Node2</title>
<g id="a_node3"><a xlink:href="classtorq_1_1ConfigurationLimit.html" target="_top" xlink:title="Joint position (configuration) limits.">
<polygon fill="white" stroke="black" points="109.5,-88.5 109.5,-107.5 241.5,-107.5 241.5,-88.5 109.5,-88.5"/>
<text text-anchor="middle" x="175.5" y="-95.5" font-family="Helvetica,sans-Serif" font-size="10.00">torq::ConfigurationLimit</text>
</a>
</g>
</g>
<!-- Node0&#45;&gt;Node2 -->
<g id="edge2" class="edge">
<title>Node0&#45;&gt;Node2</title>
<path fill="none" stroke="midnightblue" d="M77.51,-82.76C89,-84.56 101.63,-86.55 113.87,-88.47"/>
<polygon fill="midnightblue" stroke="midnightblue" points="77.75,-79.25 67.32,-81.16 76.66,-86.17 77.75,-79.25"/>
</g>
<!-- Node3 -->
<g id="node4" class="node">
<title>Node3</title>
<g id="a_node4"><a xlink:href="classtorq_1_1FloatingBaseVelocityLimit.html" target="_top" xlink:title="Floating&#45;base twist limits for mobile/legged robots.">
<polygon fill="white" stroke="black" points="103,-39 103,-69 248,-69 248,-39 103,-39"/>
<text text-anchor="start" x="111" y="-57" font-family="Helvetica,sans-Serif" font-size="10.00">torq::FloatingBaseVelocity</text>
<text text-anchor="middle" x="175.5" y="-46" font-family="Helvetica,sans-Serif" font-size="10.00">Limit</text>
</a>
</g>
</g>
<!-- Node0&#45;&gt;Node3 -->
<g id="edge3" class="edge">
<title>Node0&#45;&gt;Node3</title>
<path fill="none" stroke="midnightblue" d="M77.29,-69.28C85.44,-68 94.17,-66.62 102.93,-65.25"/>
<polygon fill="midnightblue" stroke="midnightblue" points="76.66,-65.83 67.32,-70.84 77.75,-72.75 76.66,-65.83"/>
</g>
<!-- Node4 -->
<g id="node5" class="node">
<title>Node4</title>
<g id="a_node5"><a xlink:href="classtorq_1_1VelocityLimit.html" target="_top" xlink:title="Joint velocity limits.">
<polygon fill="white" stroke="black" points="122.5,-0.5 122.5,-19.5 228.5,-19.5 228.5,-0.5 122.5,-0.5"/>
<text text-anchor="middle" x="175.5" y="-7.5" font-family="Helvetica,sans-Serif" font-size="10.00">torq::VelocityLimit</text>
</a>
</g>
</g>
<!-- Node0&#45;&gt;Node4 -->
<g id="edge4" class="edge">
<title>Node0&#45;&gt;Node4</title>
<path fill="none" stroke="midnightblue" d="M54.69,-59.93C67.82,-50.13 85.67,-37.99 103,-30 112.01,-25.84 122.07,-22.38 131.73,-19.56"/>
<polygon fill="midnightblue" stroke="midnightblue" points="52.23,-57.4 46.42,-66.26 56.48,-62.96 52.23,-57.4"/>
</g>
</g>
</svg>
