<?xml version="1.0" encoding="UTF-8" standalone="no"?>
<!DOCTYPE svg PUBLIC "-//W3C//DTD SVG 1.1//EN"
 "http://www.w3.org/Graphics/SVG/1.1/DTD/svg11.dtd">
<!-- Generated by graphviz version 2.43.0 (0)
 -->
<!-- Title: Graphical Class Hierarchy Pages: 1 -->
<svg width="418pt" height="294pt"
 viewBox="0.00 0.00 418.00 294.00" xmlns="http://www.w3.org/2000/svg" xmlns:xlink="http://www.w3.org/1999/xlink">
<g id="graph0" class="graph" transform="scale(1 1) rotate(0) translate(4 290)">
<title>Graphical Class Hierarchy</title>
<polygon fill="white" stroke="transparent" points="-4,4 -4,-290 414,-290 414,4 -4,4"/>
<!-- Node0 -->
<g id="node1" class="node">
<title>Node0</title>
<g id="a_node1"><a xlink:href="classtorq_1_1Task.html" target="_top" xlink:title="Abstract base class for kinematic tasks that contribute to the QP objective.">
<polygon fill="white" stroke="black" points="0,-133.5 0,-152.5 64,-152.5 64,-133.5 0,-133.5"/>
<text text-anchor="middle" x="32" y="-140.5" font-family="Helvetica,sans-Serif" font-size="10.00">torq::Task</text>
</a>
</g>
</g>
<!-- Node1 -->
<g id="node2" class="node">
<title>Node1</title>
<g id="a_node2"><a xlink:href="classtorq_1_1ComTask.html" target="_top" xlink:title="Regulate the center of mass position.">
<polygon fill="white" stroke="black" points="130,-266.5 130,-285.5 216,-285.5 216,-266.5 130,-266.5"/>
<text text-anchor="middle" x="173" y="-273.5" font-family="Helvetica,sans-Serif" font-size="10.00">torq::ComTask</text>
</a>
</g>
</g>
<!-- Node0&#45;&gt;Node1 -->
<g id="edge1" class="edge">
<title>Node0&#45;&gt;Node1</title>
<path fill="none" stroke="midnightblue" d="M39.13,-162.34C48.24,-187.92 67.83,-232.61 100,-257 108.65,-263.56 119.38,-267.86 129.89,-270.68"/>
<polygon fill="midnightblue" stroke="midnightblue" points="42.37,-161.02 35.86,-152.66 35.74,-163.26 42.37,-161.02"/>
</g>
<!-- Node2 -->
<g id="node3" class="node">
<title>Node2</title>
<g id="a_node3"><a xlink:href="classtorq_1_1DampingTask.html" target="_top" xlink:title="Minimise joint velocities — viscous damping.">
<polygon fill="white" stroke="black" points="119,-228.5 119,-247.5 227,-247.5 227,-228.5 119,-228.5"/>
<text text-anchor="middle" x="173" y="-235.5" font-family="Helvetica,sans-Serif" font-size="10.00">torq::DampingTask</text>
</a>
</g>
</g>
<!-- Node0&#45;&gt;Node2 -->
<g id="edge2" class="edge">
<title>Node0&#45;&gt;Node2</title>
<path fill="none" stroke="midnightblue" d="M44.4,-161.26C56.22,-178.67 76.26,-204.34 100,-219 106.27,-222.87 113.32,-225.96 120.49,-228.42"/>
<polygon fill="midnightblue" stroke="midnightblue" points="47.12,-159.02 38.71,-152.56 41.26,-162.85 47.12,-159.02"/>
</g>
<!-- Node3 -->
<g id="node4" class="node">
<title>Node3</title>
<g id="a_node4"><a xlink:href="classtorq_1_1FrameTask.html" target="_top" xlink:title="Regulate the SE(3) pose of a robot frame to a desired target.">
<polygon fill="white" stroke="black" points="125.5,-190.5 125.5,-209.5 220.5,-209.5 220.5,-190.5 125.5,-190.5"/>
<text text-anchor="middle" x="173" y="-197.5" font-family="Helvetica,sans-Serif" font-size="10.00">torq::FrameTask</text>
</a>
</g>
</g>
<!-- Node0&#45;&gt;Node3 -->
<g id="edge3" class="edge">
<title>Node0&#45;&gt;Node3</title>
<path fill="none" stroke="midnightblue" d="M55.85,-157.91C68.47,-165.64 84.65,-174.75 100,-181 108.98,-184.66 118.88,-187.8 128.38,-190.42"/>
<polygon fill="midnightblue" stroke="midnightblue" points="57.68,-154.93 47.35,-152.59 53.97,-160.87 57.68,-154.93"/>
</g>
<!-- Node4 -->
<g id="node5" class="node">
<title>Node4</title>
<g id="a_node5"><a xlink:href="classtorq_1_1JointVelocityTask.html" target="_top" xlink:title="Track reference joint velocities.">
<polygon fill="white" stroke="black" points="110.5,-152.5 110.5,-171.5 235.5,-171.5 235.5,-152.5 110.5,-152.5"/>
<text text-anchor="middle" x="173" y="-159.5" font-family="Helvetica,sans-Serif" font-size="10.00">torq::JointVelocityTask</text>
</a>
</g>
</g>
<!-- Node0&#45;&gt;Node4 -->
<g id="edge4" class="edge">
<title>Node0&#45;&gt;Node4</title>
<path fill="none" stroke="midnightblue" d="M74.25,-148.64C85.62,-150.19 98.2,-151.91 110.45,-153.59"/>
<polygon fill="midnightblue" stroke="midnightblue" points="74.58,-145.15 64.19,-147.26 73.63,-152.09 74.58,-145.15"/>
</g>
<!-- Node5 -->
<g id="node6" class="node">
<title>Node5</title>
<g id="a_node6"><a xlink:href="classtorq_1_1LinearHolonomicTask.html" target="_top" xlink:title="Linear holonomic constraint: .">
<polygon fill="white" stroke="black" points="100,-114.5 100,-133.5 246,-133.5 246,-114.5 100,-114.5"/>
<text text-anchor="middle" x="173" y="-121.5" font-family="Helvetica,sans-Serif" font-size="10.00">torq::LinearHolonomicTask</text>
</a>
</g>
</g>
<!-- Node0&#45;&gt;Node5 -->
<g id="edge5" class="edge">
<title>Node0&#45;&gt;Node5</title>
<path fill="none" stroke="midnightblue" d="M74.21,-137.37C83.07,-136.16 92.67,-134.84 102.28,-133.53"/>
<polygon fill="midnightblue" stroke="midnightblue" points="73.63,-133.91 64.19,-138.74 74.58,-140.85 73.63,-133.91"/>
</g>
<!-- Node7 -->
<g id="node8" class="node">
<title>Node7</title>
<g id="a_node8"><a xlink:href="classtorq_1_1LowAccelerationTask.html" target="_top" xlink:title="Minimize joint accelerations: .">
<polygon fill="white" stroke="black" points="101,-76.5 101,-95.5 245,-95.5 245,-76.5 101,-76.5"/>
<text text-anchor="middle" x="173" y="-83.5" font-family="Helvetica,sans-Serif" font-size="10.00">torq::LowAccelerationTask</text>
</a>
</g>
</g>
<!-- Node0&#45;&gt;Node7 -->
<g id="edge7" class="edge">
<title>Node0&#45;&gt;Node7</title>
<path fill="none" stroke="midnightblue" d="M55.85,-128.09C68.47,-120.36 84.65,-111.25 100,-105 108.98,-101.34 118.88,-98.2 128.38,-95.58"/>
<polygon fill="midnightblue" stroke="midnightblue" points="53.97,-125.13 47.35,-133.41 57.68,-131.07 53.97,-125.13"/>
</g>
<!-- Node8 -->
<g id="node9" class="node">
<title>Node8</title>
<g id="a_node9"><a xlink:href="classtorq_1_1PostureTask.html" target="_top" xlink:title="Regulate joint angles toward a desired posture.">
<polygon fill="white" stroke="black" points="122.5,-38.5 122.5,-57.5 223.5,-57.5 223.5,-38.5 122.5,-38.5"/>
<text text-anchor="middle" x="173" y="-45.5" font-family="Helvetica,sans-Serif" font-size="10.00">torq::PostureTask</text>
</a>
</g>
</g>
<!-- Node0&#45;&gt;Node8 -->
<g id="edge8" class="edge">
<title>Node0&#45;&gt;Node8</title>
<path fill="none" stroke="midnightblue" d="M44.4,-124.74C56.22,-107.33 76.26,-81.66 100,-67 106.82,-62.79 114.56,-59.5 122.37,-56.94"/>
<polygon fill="midnightblue" stroke="midnightblue" points="41.26,-123.15 38.71,-133.44 47.12,-126.98 41.26,-123.15"/>
</g>
<!-- Node9 -->
<g id="node10" class="node">
<title>Node9</title>
<g id="a_node10"><a xlink:href="classtorq_1_1RelativeFrameTask.html" target="_top" xlink:title="Regulate the pose of a frame relative to another frame.">
<polygon fill="white" stroke="black" points="105.5,-0.5 105.5,-19.5 240.5,-19.5 240.5,-0.5 105.5,-0.5"/>
<text text-anchor="middle" x="173" y="-7.5" font-family="Helvetica,sans-Serif" font-size="10.00">torq::RelativeFrameTask</text>
</a>
</g>
</g>
<!-- Node0&#45;&gt;Node9 -->
<g id="edge9" class="edge">
<title>Node0&#45;&gt;Node9</title>
<path fill="none" stroke="midnightblue" d="M39.13,-123.66C48.24,-98.08 67.83,-53.39 100,-29 105.15,-25.09 111.04,-21.99 117.17,-19.52"/>
<polygon fill="midnightblue" stroke="midnightblue" points="35.74,-122.74 35.86,-133.34 42.37,-124.98 35.74,-122.74"/>
</g>
<!-- Node6 -->
<g id="node7" class="node">
<title>Node6</title>
<g id="a_node7"><a xlink:href="classtorq_1_1JointCouplingTask.html" target="_top" xlink:title="Coupling constraint between revolute joints.">
<polygon fill="white" stroke="black" points="282,-114.5 282,-133.5 410,-133.5 410,-114.5 282,-114.5"/>
<text text-anchor="middle" x="346" y="-121.5" font-family="Helvetica,sans-Serif" font-size="10.00">torq::JointCouplingTask</text>
</a>
</g>
</g>
<!-- Node5&#45;&gt;Node6 -->
<g id="edge6" class="edge">
<title>Node5&#45;&gt;Node6</title>
<path fill="none" stroke="midnightblue" d="M256.1,-124C264.72,-124 273.38,-124 281.74,-124"/>
<polygon fill="midnightblue" stroke="midnightblue" points="256.02,-120.5 246.02,-124 256.02,-127.5 256.02,-120.5"/>
</g>
</g>
</svg>
