<?xml version="1.0" encoding="UTF-8" standalone="no"?>
<!DOCTYPE svg PUBLIC "-//W3C//DTD SVG 1.1//EN"
 "http://www.w3.org/Graphics/SVG/1.1/DTD/svg11.dtd">
<!-- Generated by graphviz version 2.43.0 (0)
 -->
<!-- Title: Graphical Class Hierarchy Pages: 1 -->
<svg width="216pt" height="104pt"
 viewBox="0.00 0.00 216.00 104.00" xmlns="http://www.w3.org/2000/svg" xmlns:xlink="http://www.w3.org/1999/xlink">
<g id="graph0" class="graph" transform="scale(1 1) rotate(0) translate(4 100)">
<title>Graphical Class Hierarchy</title>
<polygon fill="white" stroke="transparent" points="-4,4 -4,-100 212,-100 212,4 -4,4"/>
<!-- Node0 -->
<g id="node1" class="node">
<title>Node0</title>
<g id="a_node1"><a xlink:href="classtorq_1_1Task.html" target="_top" xlink:title="Abstract base class for kinematic tasks that contribute to the QP objective.">
<polygon fill="white" stroke="black" points="0,-38.5 0,-57.5 64,-57.5 64,-38.5 0,-38.5"/>
<text text-anchor="middle" x="32" y="-45.5" font-family="Helvetica,sans-Serif" font-size="10.00">torq::Task</text>
</a>
</g>
</g>
<!-- Node1 -->
<g id="node2" class="node">
<title>Node1</title>
<g id="a_node2"><a xlink:href="classtorq_1_1DampingTask.html" target="_top" xlink:title="Minimise joint velocities — viscous damping.">
<polygon fill="white" stroke="black" points="100,-76.5 100,-95.5 208,-95.5 208,-76.5 100,-76.5"/>
<text text-anchor="middle" x="154" y="-83.5" font-family="Helvetica,sans-Serif" font-size="10.00">torq::DampingTask</text>
</a>
</g>
</g>
<!-- Node0&#45;&gt;Node1 -->
<g id="edge1" class="edge">
<title>Node0&#45;&gt;Node1</title>
<path fill="none" stroke="midnightblue" d="M73.04,-60.68C89.26,-65.81 107.67,-71.64 122.73,-76.41"/>
<polygon fill="midnightblue" stroke="midnightblue" points="73.87,-57.27 63.28,-57.59 71.76,-63.94 73.87,-57.27"/>
</g>
<!-- Node2 -->
<g id="node3" class="node">
<title>Node2</title>
<g id="a_node3"><a xlink:href="classtorq_1_1FrameTask.html" target="_top" xlink:title="Regulate the SE(3) pose of a robot frame to a desired target.">
<polygon fill="white" stroke="black" points="106.5,-38.5 106.5,-57.5 201.5,-57.5 201.5,-38.5 106.5,-38.5"/>
<text text-anchor="middle" x="154" y="-45.5" font-family="Helvetica,sans-Serif" font-size="10.00">torq::FrameTask</text>
</a>
</g>
</g>
<!-- Node0&#45;&gt;Node2 -->
<g id="edge2" class="edge">
<title>Node0&#45;&gt;Node2</title>
<path fill="none" stroke="midnightblue" d="M74.5,-48C84.69,-48 95.68,-48 106.11,-48"/>
<polygon fill="midnightblue" stroke="midnightblue" points="74.22,-44.5 64.22,-48 74.22,-51.5 74.22,-44.5"/>
</g>
<!-- Node3 -->
<g id="node4" class="node">
<title>Node3</title>
<g id="a_node4"><a xlink:href="classtorq_1_1PostureTask.html" target="_top" xlink:title="Regulate joint angles toward a desired posture.">
<polygon fill="white" stroke="black" points="103.5,-0.5 103.5,-19.5 204.5,-19.5 204.5,-0.5 103.5,-0.5"/>
<text text-anchor="middle" x="154" y="-7.5" font-family="Helvetica,sans-Serif" font-size="10.00">torq::PostureTask</text>
</a>
</g>
</g>
<!-- Node0&#45;&gt;Node3 -->
<g id="edge3" class="edge">
<title>Node0&#45;&gt;Node3</title>
<path fill="none" stroke="midnightblue" d="M73.04,-35.32C89.26,-30.19 107.67,-24.36 122.73,-19.59"/>
<polygon fill="midnightblue" stroke="midnightblue" points="71.76,-32.06 63.28,-38.41 73.87,-38.73 71.76,-32.06"/>
</g>
</g>
</svg>
