<?xml version="1.0" encoding="UTF-8" standalone="no"?>
<!DOCTYPE svg PUBLIC "-//W3C//DTD SVG 1.1//EN"
 "http://www.w3.org/Graphics/SVG/1.1/DTD/svg11.dtd">
<!-- Generated by graphviz version 2.43.0 (0)
 -->
<!-- Title: Graphical Class Hierarchy Pages: 1 -->
<svg width="284pt" height="66pt"
 viewBox="0.00 0.00 284.00 66.00" xmlns="http://www.w3.org/2000/svg" xmlns:xlink="http://www.w3.org/1999/xlink">
<g id="graph0" class="graph" transform="scale(1 1) rotate(0) translate(4 62)">
<title>Graphical Class Hierarchy</title>
<polygon fill="white" stroke="transparent" points="-4,4 -4,-62 280,-62 280,4 -4,4"/>
<!-- Node0 -->
<g id="node1" class="node">
<title>Node0</title>
<g id="a_node1"><a xlink:href="classtorq_1_1HardwareInterface.html" target="_top" xlink:title="Abstract hardware abstraction layer for any robot driver (simulation or real).">
<polygon fill="white" stroke="black" points="0,-19.5 0,-38.5 133,-38.5 133,-19.5 0,-19.5"/>
<text text-anchor="middle" x="66.5" y="-26.5" font-family="Helvetica,sans-Serif" font-size="10.00">torq::HardwareInterface</text>
</a>
</g>
</g>
<!-- Node1 -->
<g id="node2" class="node">
<title>Node1</title>
<g id="a_node2"><a xlink:href="classtorq_1_1MujocoDriver.html" target="_top" xlink:title=" ">
<polygon fill="white" stroke="black" points="169,-38.5 169,-57.5 276,-57.5 276,-38.5 169,-38.5"/>
<text text-anchor="middle" x="222.5" y="-45.5" font-family="Helvetica,sans-Serif" font-size="10.00">torq::MujocoDriver</text>
</a>
</g>
</g>
<!-- Node0&#45;&gt;Node1 -->
<g id="edge1" class="edge">
<title>Node0&#45;&gt;Node1</title>
<path fill="none" stroke="midnightblue" d="M143.39,-38.36C152.05,-39.43 160.73,-40.5 168.99,-41.52"/>
<polygon fill="midnightblue" stroke="midnightblue" points="143.61,-34.86 133.26,-37.11 142.75,-41.81 143.61,-34.86"/>
</g>
<!-- Node2 -->
<g id="node3" class="node">
<title>Node2</title>
<g id="a_node3"><a xlink:href="classtorq_1_1ServoDriver.html" target="_top" xlink:title="Hardware driver for ST/STS/SMS serial bus servos (e.g.">
<polygon fill="white" stroke="black" points="172.5,-0.5 172.5,-19.5 272.5,-19.5 272.5,-0.5 172.5,-0.5"/>
<text text-anchor="middle" x="222.5" y="-7.5" font-family="Helvetica,sans-Serif" font-size="10.00">torq::ServoDriver</text>
</a>
</g>
</g>
<!-- Node0&#45;&gt;Node2 -->
<g id="edge2" class="edge">
<title>Node0&#45;&gt;Node2</title>
<path fill="none" stroke="midnightblue" d="M143.43,-19.63C153.24,-18.42 163.06,-17.21 172.27,-16.07"/>
<polygon fill="midnightblue" stroke="midnightblue" points="142.75,-16.19 133.26,-20.89 143.61,-23.14 142.75,-16.19"/>
</g>
</g>
</svg>
